# File created by Blade
# Date/Time:  Tue Sep 23 19:22:32 2014
# Frame Rate: 120.000 fps
#------------------------------------------------------
:FULLY-SPECIFIED
:DEGREES
1979
root 5.594388 34.761106 4.903020 134.092225 -24.583709 -45.344642
Spine -75.248838 -14.194254 31.050471
Head -4.884691 29.653460 42.715371
LeftShoulder -24.136814 38.506880 36.400250
LeftArm 137.646582 -80.224286 -171.844348
LeftForeArm 48.266465 0.000000 111.105556
LeftHand 15.616807 -0.000000 29.901762
LeftHandThumb1 -26.253704 0.000000 33.147579
RightShoulder -63.327247 -58.000759 23.072664
RightArm 20.065954 6.849350 64.216843
RightForeArm 27.802093 0.000000 108.860852
RightHand 18.280289 -0.000000 -4.009479
RightHandThumb1 -24.326973 -0.000000 -32.862282
LeftUpLeg -106.091703 39.507306 -0.161611
LeftLeg 5.412918 -0.000000 -0.000000
LeftFoot -8.433784 -10.374431 -8.589566
LeftToeBase 15.427919 -0.000000 -0.000000
RightUpLeg -0.993827 19.119595 -30.129808
RightLeg 133.944414 -0.000000 -0.000000
RightFoot 50.217438 22.293278 -3.157999
RightToeBase 27.185890 -0.000000 -0.000000
1980
root 5.575661 34.762136 4.888342 134.123943 -24.589455 -45.368297
Spine -75.293318 -14.254624 31.227547
Head -4.908174 29.639837 42.768510
LeftShoulder -24.200343 38.534955 36.438050
LeftArm 137.517312 -80.081072 -171.715597
LeftForeArm 47.944343 -0.000000 111.121234
LeftHand 16.055208 -0.000000 29.431179
LeftHandThumb1 -26.253704 0.000000 33.147579
RightShoulder -63.311831 -57.733200 23.010912
RightArm 20.101321 7.640865 64.719454
RightForeArm 27.933576 -0.000000 108.691407
RightHand 17.588854 -0.000000 -3.991854
RightHandThumb1 -24.326973 -0.000000 -32.862282
LeftUpLeg -106.127855 39.541007 -0.174445
LeftLeg 5.451264 -0.000000 -0.000000
LeftFoot -8.307645 -10.305480 -8.220889
LeftToeBase 15.194537 -0.000000 -0.000000
RightUpLeg -0.890885 18.948289 -30.007261
RightLeg 133.475877 -0.000000 -0.000000
RightFoot 50.058192 22.316348 -3.462108
RightToeBase 26.767789 -0.000000 -0.000000
1981
root 5.563681 34.764173 4.875686 134.219842 -24.618139 -45.358026
Spine -75.400507 -14.300224 31.427999
Head -4.980891 29.682913 42.787748
LeftShoulder -24.283409 38.583305 36.487403
LeftArm 136.986582 -79.941947 -171.251589
LeftForeArm 47.898212 -0.000000 111.156443
LeftHand 16.160851 -0.000000 29.185147
LeftHandThumb1 -26.253704 0.000000 33.147579
RightShoulder -63.247398 -57.403042 22.890051
RightArm 20.122609 8.393761 65.148175
RightForeArm 28.408319 -0.000000 108.423124
RightHand 17.340977 -0.000000 -3.720294
RightHandThumb1 -24.326973 -0.000000 -32.862282
LeftUpLeg -106.249171 39.514487 -0.203971
LeftLeg 5.488695 -0.000000 -0.000000
LeftFoot -8.064817 -10.132853 -7.499257
LeftToeBase 14.567583 -0.000000 -0.000000
RightUpLeg -0.829278 18.667240 -29.957359
RightLeg 132.965654 -0.000000 -0.000000
RightFoot 49.826544 22.237642 -3.891911
RightToeBase 26.673108 -0.000000 -0.000000
1982
root 5.555720 34.763850 4.865216 134.370955 -24.701402 -45.295677
Spine -75.576895 -14.345226 31.660060
Head -5.147187 29.749377 42.687781
LeftShoulder -24.393688 38.550373 36.478058
LeftArm 136.742908 -79.861265 -170.984783
LeftForeArm 47.989703 -0.000000 111.121341
LeftHand 16.168314 -0.000000 29.160574
LeftHandThumb1 -26.253704 0.000000 33.147579
RightShoulder -63.142290 -57.063057 22.741609
RightArm 20.107190 9.091879 65.496216
RightForeArm 29.264019 -0.000000 108.197630
RightHand 16.966736 -0.000000 -3.906869
RightHandThumb1 -24.326973 -0.000000 -32.862282
LeftUpLeg -106.434264 39.396436 -0.250631
LeftLeg 5.509623 -0.000000 -0.000000
LeftFoot -7.770036 -9.887193 -6.459378
LeftToeBase 13.727385 -0.000000 -0.000000
RightUpLeg -0.770906 18.271856 -29.964417
RightLeg 132.421185 -0.000000 -0.000000
RightFoot 49.402234 22.228878 -4.540287
RightToeBase 26.352237 -0.000000 -0.000000
1983
root 5.548436 34.763532 4.852229 134.491344 -24.788253 -45.235392
Spine -75.724998 -14.407156 31.876928
Head -5.325763 29.819132 42.587453
LeftShoulder -24.446909 38.527394 36.461601
LeftArm 136.976182 -79.801348 -171.197124
LeftForeArm 48.087880 -0.000000 111.087279
LeftHand 16.264317 -0.000000 29.121827
LeftHandThumb1 -26.253704 0.000000 33.147579
RightShoulder -62.865205 -56.746809 22.458921
RightArm 19.941782 9.749878 65.861765
RightForeArm 30.260926 -0.000000 107.945294
RightHand 16.841300 -0.000000 -4.161777
RightHandThumb1 -24.326973 -0.000000 -32.862282
LeftUpLeg -106.544896 39.275840 -0.226710
LeftLeg 5.505638 -0.000000 -0.000000
LeftFoot -7.393464 -9.558479 -5.224744
LeftToeBase 12.518581 -0.000000 -0.000000
RightUpLeg -0.670068 17.892198 -30.007908
RightLeg 131.841351 -0.000000 -0.000000
RightFoot 49.021546 22.349712 -5.175385
RightToeBase 26.165357 -0.000000 -0.000000
